{
	"asset":{
		"generator":"Khronos glTF Blender I/O v3.5.30",
		"version":"2.0"
	},
	"scene":0,
	"scenes":[
		{
			"name":"Scene",
			"nodes":[
				0,
				1,
				2,
				3,
				4,
				5
			]
		}
	],
	"nodes":[
		{
			"mesh":0,
			"name":"membrane 1 top",
			"rotation":[
				0.7071068286895752,
				0,
				0,
				0.7071068286895752
			]
		},
		{
			"mesh":1,
			"name":"membrane 1 bottom",
			"rotation":[
				0.7071068286895752,
				0,
				0,
				0.7071068286895752
			]
		},
		{
			"mesh":2,
			"name":"pole 1",
			"rotation":[
				0.7071068286895752,
				0,
				0,
				0.7071068286895752
			]
		},
		{
			"mesh":3,
			"name":"pole 2",
			"rotation":[
				0.7071068286895752,
				0,
				0,
				0.7071068286895752
			]
		},
		{
			"mesh":4,
			"name":"pole 3",
			"rotation":[
				0.7071068286895752,
				0,
				0,
				0.7071068286895752
			]
		},
		{
			"mesh":5,
			"name":"pole 4",
			"rotation":[
				0.7071068286895752,
				0,
				0,
				0.7071068286895752
			]
		}
	],
	"materials":[
		{
			"doubleSided":true,
			"name":"Default OBJ",
			"pbrMetallicRoughness":{
				"baseColorFactor":[
					0.800000011920929,
					0.800000011920929,
					0.800000011920929,
					1
				],
				"metallicFactor":0,
				"roughnessFactor":0.5
			}
		}
	],
	"meshes":[
		{
			"name":"membrane 1 top",
			"primitives":[
				{
					"attributes":{
						"POSITION":0,
						"TEXCOORD_0":1,
						"NORMAL":2
					},
					"indices":3,
					"material":0
				}
			]
		},
		{
			"name":"membrane 1 bottom",
			"primitives":[
				{
					"attributes":{
						"POSITION":4,
						"TEXCOORD_0":5,
						"NORMAL":6
					},
					"indices":7,
					"material":0
				}
			]
		},
		{
			"name":"pole 1",
			"primitives":[
				{
					"attributes":{
						"POSITION":8,
						"TEXCOORD_0":9,
						"NORMAL":10
					},
					"indices":11,
					"material":0
				}
			]
		},
		{
			"name":"pole 2",
			"primitives":[
				{
					"attributes":{
						"POSITION":12,
						"TEXCOORD_0":13,
						"NORMAL":14
					},
					"indices":11,
					"material":0
				}
			]
		},
		{
			"name":"pole 3",
			"primitives":[
				{
					"attributes":{
						"POSITION":15,
						"TEXCOORD_0":16,
						"NORMAL":17
					},
					"indices":11,
					"material":0
				}
			]
		},
		{
			"name":"pole 4",
			"primitives":[
				{
					"attributes":{
						"POSITION":18,
						"TEXCOORD_0":19,
						"NORMAL":20
					},
					"indices":11,
					"material":0
				}
			]
		}
	],
	"accessors":[
		{
			"bufferView":0,
			"componentType":5126,
			"count":2401,
			"max":[
				10.343816757202148,
				10.343137741088867,
				-8.349482536315918
			],
			"min":[
				-10.343816757202148,
				-10.343137741088867,
				-12.995680809020996
			],
			"type":"VEC3"
		},
		{
			"bufferView":1,
			"componentType":5126,
			"count":2401,
			"type":"VEC2"
		},
		{
			"bufferView":2,
			"componentType":5126,
			"count":2401,
			"type":"VEC3"
		},
		{
			"bufferView":3,
			"componentType":5123,
			"count":13824,
			"type":"SCALAR"
		},
		{
			"bufferView":4,
			"componentType":5126,
			"count":2401,
			"max":[
				10.343816757202148,
				10.343137741088867,
				-8.349482536315918
			],
			"min":[
				-10.343816757202148,
				-10.343137741088867,
				-12.995680809020996
			],
			"type":"VEC3"
		},
		{
			"bufferView":5,
			"componentType":5126,
			"count":2401,
			"type":"VEC2"
		},
		{
			"bufferView":6,
			"componentType":5126,
			"count":2401,
			"type":"VEC3"
		},
		{
			"bufferView":7,
			"componentType":5123,
			"count":13824,
			"type":"SCALAR"
		},
		{
			"bufferView":8,
			"componentType":5126,
			"count":75,
			"max":[
				-9.777207374572754,
				-9.777870178222656,
				0
			],
			"min":[
				-10.775546073913574,
				-10.776261329650879,
				-8.208325386047363
			],
			"type":"VEC3"
		},
		{
			"bufferView":9,
			"componentType":5126,
			"count":75,
			"type":"VEC2"
		},
		{
			"bufferView":10,
			"componentType":5126,
			"count":75,
			"type":"VEC3"
		},
		{
			"bufferView":11,
			"componentType":5123,
			"count":288,
			"type":"SCALAR"
		},
		{
			"bufferView":12,
			"componentType":5126,
			"count":75,
			"max":[
				11.080434799194336,
				-9.77785873413086,
				0
			],
			"min":[
				9.778523445129395,
				-11.079716682434082,
				-13.133319854736328
			],
			"type":"VEC3"
		},
		{
			"bufferView":13,
			"componentType":5126,
			"count":75,
			"type":"VEC2"
		},
		{
			"bufferView":14,
			"componentType":5126,
			"count":75,
			"type":"VEC3"
		},
		{
			"bufferView":15,
			"componentType":5126,
			"count":75,
			"max":[
				10.77556324005127,
				10.7762451171875,
				0
			],
			"min":[
				9.777205467224121,
				9.777872085571289,
				-8.208325386047363
			],
			"type":"VEC3"
		},
		{
			"bufferView":16,
			"componentType":5126,
			"count":75,
			"type":"VEC2"
		},
		{
			"bufferView":17,
			"componentType":5126,
			"count":75,
			"type":"VEC3"
		},
		{
			"bufferView":18,
			"componentType":5126,
			"count":75,
			"max":[
				-9.778525352478027,
				11.079718589782715,
				0
			],
			"min":[
				-11.080437660217285,
				9.777860641479492,
				-13.133319854736328
			],
			"type":"VEC3"
		},
		{
			"bufferView":19,
			"componentType":5126,
			"count":75,
			"type":"VEC2"
		},
		{
			"bufferView":20,
			"componentType":5126,
			"count":75,
			"type":"VEC3"
		}
	],
	"bufferViews":[
		{
			"buffer":0,
			"byteLength":28812,
			"byteOffset":0,
			"target":34962
		},
		{
			"buffer":0,
			"byteLength":19208,
			"byteOffset":28812,
			"target":34962
		},
		{
			"buffer":0,
			"byteLength":28812,
			"byteOffset":48020,
			"target":34962
		},
		{
			"buffer":0,
			"byteLength":27648,
			"byteOffset":76832,
			"target":34963
		},
		{
			"buffer":0,
			"byteLength":28812,
			"byteOffset":104480,
			"target":34962
		},
		{
			"buffer":0,
			"byteLength":19208,
			"byteOffset":133292,
			"target":34962
		},
		{
			"buffer":0,
			"byteLength":28812,
			"byteOffset":152500,
			"target":34962
		},
		{
			"buffer":0,
			"byteLength":27648,
			"byteOffset":181312,
			"target":34963
		},
		{
			"buffer":0,
			"byteLength":900,
			"byteOffset":208960,
			"target":34962
		},
		{
			"buffer":0,
			"byteLength":600,
			"byteOffset":209860,
			"target":34962
		},
		{
			"buffer":0,
			"byteLength":900,
			"byteOffset":210460,
			"target":34962
		},
		{
			"buffer":0,
			"byteLength":576,
			"byteOffset":211360,
			"target":34963
		},
		{
			"buffer":0,
			"byteLength":900,
			"byteOffset":211936,
			"target":34962
		},
		{
			"buffer":0,
			"byteLength":600,
			"byteOffset":212836,
			"target":34962
		},
		{
			"buffer":0,
			"byteLength":900,
			"byteOffset":213436,
			"target":34962
		},
		{
			"buffer":0,
			"byteLength":900,
			"byteOffset":214336,
			"target":34962
		},
		{
			"buffer":0,
			"byteLength":600,
			"byteOffset":215236,
			"target":34962
		},
		{
			"buffer":0,
			"byteLength":900,
			"byteOffset":215836,
			"target":34962
		},
		{
			"buffer":0,
			"byteLength":900,
			"byteOffset":216736,
			"target":34962
		},
		{
			"buffer":0,
			"byteLength":600,
			"byteOffset":217636,
			"target":34962
		},
		{
			"buffer":0,
			"byteLength":900,
			"byteOffset":218236,
			"target":34962
		}
	],
	"buffers":[
		{
			"byteLength":219136,
			"uri":"data:application/octet-stream;base64,"
		}
	]
}
